<?xml version="1.0" standalone="no"?>
<!DOCTYPE svg PUBLIC "-//W3C//DTD SVG 20010904//EN"
 "http://www.w3.org/TR/2001/REC-SVG-20010904/DTD/svg10.dtd">
<svg version="1.0" xmlns="http://www.w3.org/2000/svg"
 width="500.000000pt" height="500.000000pt" viewBox="0 0 500.000000 500.000000"
 preserveAspectRatio="xMidYMid meet">

<g transform="translate(0.000000,500.000000) scale(0.100000,-0.100000)"
fill="#000000" stroke="none">
<path d="M2768 3827 c-67 -15 -71 -18 -62 -41 5 -13 14 -16 33 -12 197 44 407
17 609 -79 132 -63 217 -122 303 -212 173 -182 257 -381 246 -589 -2 -50 -7
-96 -11 -102 -3 -6 -20 4 -40 24 -19 19 -41 34 -50 34 -21 0 -34 -32 -16 -38
33 -11 60 -51 60 -89 0 -26 6 -42 19 -50 15 -10 26 -5 66 28 26 22 59 42 74
45 47 10 51 13 51 34 0 25 -26 26 -77 5 -20 -8 -38 -14 -40 -12 -2 2 2 38 7
80 40 282 -152 637 -437 810 -99 60 -223 115 -324 142 -115 32 -319 43 -411
22z"/>
<path d="M2472 3519 c-18 -3 -42 -15 -53 -25 -51 -46 -49 -9 -49 -996 0 -859
1 -925 18 -958 19 -39 71 -70 118 -70 37 0 94 36 111 70 10 20 13 232 13 958
0 813 -2 937 -15 962 -24 46 -86 72 -143 59z"/>
<path d="M1343 3463 c15 -2 37 -2 50 0 12 2 0 4 -28 4 -27 0 -38 -2 -22 -4z"/>
<path d="M1460 3463 c0 -4 27 -6 60 -5 51 3 59 1 54 -12 -3 -8 -20 -16 -37
-18 -37 -3 -53 -38 -19 -38 11 0 23 -6 25 -12 3 -8 6 -6 6 5 1 11 -6 17 -19
17 -11 0 -20 5 -20 10 0 6 16 10 35 10 26 0 35 4 36 18 1 9 5 1 10 -18 l8 -35
-3 38 c-2 33 1 37 21 37 21 0 23 -4 23 -52 0 -31 4 -48 9 -42 5 5 6 29 2 54
l-6 45 -92 3 c-51 1 -93 -1 -93 -5z"/>
<path d="M1675 3459 c-4 -6 -4 -13 -1 -16 3 -4 6 -1 6 5 0 16 37 15 43 0 3 -8
6 -6 6 5 1 19 -43 25 -54 6z"/>
<path d="M1740 3462 c0 -4 21 -6 48 -4 75 5 82 10 15 11 -35 0 -63 -2 -63 -7z"/>
<path d="M1871 3448 c1 -17 3 -18 6 -6 3 12 18 18 51 21 l47 3 -52 2 c-49 2
-53 0 -52 -20z"/>
<path d="M2075 3463 c35 -5 55 -20 55 -39 0 -16 -36 -19 -45 -4 -3 6 -12 10
-18 9 -9 0 -9 -2 1 -6 6 -2 12 -9 12 -14 0 -6 -6 -7 -12 -3 -7 4 -9 3 -5 -2 4
-4 23 -7 42 -5 28 2 34 -1 38 -21 2 -13 2 -5 0 17 -5 51 -27 75 -67 74 l-31
-2 30 -4z"/>
<path d="M2151 3448 c1 -19 2 -19 6 -5 4 16 13 18 63 15 32 -1 56 0 53 5 -2 4
-31 7 -64 7 -55 0 -59 -2 -58 -22z"/>
<path d="M2020 3445 c-7 -9 -11 -17 -9 -20 3 -2 10 5 17 15 14 24 10 26 -8 5z"/>
<path d="M1850 3441 c0 -6 -15 -11 -32 -13 -37 -3 -55 -38 -20 -38 11 0 23 -6
25 -12 3 -8 6 -6 6 5 1 11 -6 17 -19 17 -11 0 -20 5 -20 10 0 6 16 10 35 10
24 0 35 5 35 15 0 8 -2 15 -5 15 -3 0 -5 -4 -5 -9z"/>
<path d="M1312 3415 c0 -16 2 -22 5 -12 2 9 2 23 0 30 -3 6 -5 -1 -5 -18z"/>
<path d="M1992 3415 c0 -16 2 -22 5 -12 2 9 2 23 0 30 -3 6 -5 -1 -5 -18z"/>
<path d="M1361 3408 c1 -17 2 -19 6 -5 2 9 9 17 15 17 6 0 7 -8 3 -17 -5 -14
-3 -15 6 -6 13 13 4 33 -17 33 -8 0 -14 -9 -13 -22z"/>
<path d="M1926 3423 c6 -4 14 -15 17 -23 5 -11 6 -9 4 4 -1 11 -9 21 -17 23
-10 3 -11 2 -4 -4z"/>
<path d="M2218 3423 c12 -2 30 -2 40 0 9 3 -1 5 -23 4 -22 0 -30 -2 -17 -4z"/>
<path d="M1448 3395 c2 -14 6 -25 8 -25 2 0 4 11 4 25 0 14 -4 25 -9 25 -4 0
-6 -11 -3 -25z"/>
<path d="M1732 3395 c0 -16 2 -22 5 -12 2 9 2 23 0 30 -3 6 -5 -1 -5 -18z"/>
<path d="M2196 3399 c3 -5 12 -9 20 -9 23 0 16 -28 -8 -33 -20 -5 -20 -5 2 -4
36 3 41 43 6 49 -14 3 -23 1 -20 -3z"/>
<path d="M1862 3375 c0 -16 2 -22 5 -12 2 9 2 23 0 30 -3 6 -5 -1 -5 -18z"/>
<path d="M1419 3373 c-13 -16 -12 -17 4 -4 9 7 17 15 17 17 0 8 -8 3 -21 -13z"/>
<path d="M2024 3372 c19 -22 19 -22 -5 -23 -21 -1 -21 -2 -4 -6 11 -3 26 -10
33 -15 9 -8 11 -6 6 8 -5 18 -5 18 10 0 9 -11 16 -15 16 -9 0 6 -17 23 -37 39
-29 21 -33 22 -19 6z"/>
<path d="M2101 3376 c8 -10 20 -37 26 -60 l13 -41 -6 40 c-3 22 -15 49 -27 60
-18 17 -19 17 -6 1z"/>
<path d="M1970 3365 c-7 -9 -11 -17 -9 -20 3 -2 10 5 17 15 14 24 10 26 -8 5z"/>
<path d="M1302 3335 c0 -16 2 -22 5 -12 2 9 2 23 0 30 -3 6 -5 -1 -5 -18z"/>
<path d="M1497 3353 c-17 -17 -4 -31 32 -35 22 -2 37 0 35 4 -3 5 -18 8 -35 8
-34 0 -39 17 -6 23 20 4 20 4 1 6 -11 0 -24 -2 -27 -6z"/>
<path d="M1602 3335 c0 -16 2 -22 5 -12 2 9 2 23 0 30 -3 6 -5 -1 -5 -18z"/>
<path d="M1777 3353 c-18 -18 -5 -33 28 -33 28 0 38 -5 45 -22 9 -23 9 -23 9
-2 1 23 -16 34 -55 34 -30 0 -32 17 -1 23 20 4 20 4 1 6 -11 0 -24 -2 -27 -6z"/>
<path d="M1905 3327 c-4 -21 -5 -41 -1 -44 3 -4 6 7 7 23 0 25 2 26 9 9 11
-26 12 3 0 30 -6 17 -9 14 -15 -18z"/>
<path d="M1350 3334 c0 -8 5 -12 10 -9 6 3 10 10 10 16 0 5 -4 9 -10 9 -5 0
-10 -7 -10 -16z"/>
<path d="M1411 3334 c0 -11 3 -14 6 -6 3 7 2 16 -1 19 -3 4 -6 -2 -5 -13z"/>
<path d="M1442 3310 c0 -19 2 -27 5 -17 2 9 2 25 0 35 -3 9 -5 1 -5 -18z"/>
<path d="M1722 3310 c0 -19 2 -27 5 -17 2 9 2 25 0 35 -3 9 -5 1 -5 -18z"/>
<path d="M1971 3314 c0 -11 3 -14 6 -6 3 7 2 16 -1 19 -3 4 -6 -2 -5 -13z"/>
<path d="M2212 3323 c20 -2 39 -11 41 -19 3 -9 4 -8 3 3 -1 14 -11 18 -41 19
l-40 1 37 -4z"/>
<path d="M1371 3294 c0 -11 3 -14 6 -6 3 7 2 16 -1 19 -3 4 -6 -2 -5 -13z"/>
<path d="M1421 3294 c0 -11 3 -14 6 -6 3 7 2 16 -1 19 -3 4 -6 -2 -5 -13z"/>
<path d="M2000 3306 c0 -2 8 -10 18 -17 15 -13 16 -12 3 4 -13 16 -21 21 -21
13z"/>
<path d="M2096 3295 c-11 -8 -15 -15 -9 -15 6 0 16 7 23 15 16 19 11 19 -14 0z"/>
<path d="M2065 3190 c-11 -4 -33 -22 -50 -40 l-30 -31 -3 -604 c-2 -508 0
-610 12 -639 39 -92 173 -100 226 -13 19 31 20 55 20 637 0 589 -1 606 -20
638 -31 50 -102 74 -155 52z"/>
<path d="M2841 3182 c-19 -9 -44 -30 -55 -45 -21 -28 -21 -40 -24 -628 -3
-650 -3 -648 52 -684 60 -40 140 -27 185 31 21 26 21 33 21 638 0 595 -1 612
-20 644 -20 32 -71 62 -107 62 -10 0 -33 -8 -52 -18z"/>
<path d="M1063 2835 c-67 -36 -92 -45 -133 -45 l-50 0 0 -95 0 -95 48 0 c37 0
67 -11 139 -49 50 -27 94 -46 97 -43 3 3 6 38 6 78 0 55 4 73 15 78 8 3 15 14
15 25 0 11 -7 26 -15 35 -11 10 -15 36 -15 85 0 50 -4 71 -12 71 -7 0 -50 -20
-95 -45z m87 -146 l0 -170 -82 45 -83 45 -3 85 -3 85 78 40 c43 22 81 40 86
41 4 0 7 -77 7 -171z m-180 1 l0 -80 -40 0 -40 0 0 80 0 80 40 0 40 0 0 -80z
m220 5 c0 -8 -4 -17 -10 -20 -6 -4 -10 5 -10 20 0 15 4 24 10 20 6 -3 10 -12
10 -20z"/>
<path d="M1305 2855 c43 -68 50 -90 50 -166 0 -69 -3 -81 -34 -130 -21 -35
-26 -48 -13 -36 11 10 30 42 42 70 38 87 14 230 -47 278 -16 13 -16 11 2 -16z"/>
<path d="M1220 2818 c0 -4 10 -24 22 -44 29 -50 29 -125 -2 -166 -12 -16 -19
-32 -16 -35 8 -8 45 59 52 95 8 40 -9 101 -36 134 -11 12 -19 20 -20 16z"/>
<path d="M1660 2807 c-13 -7 -35 -28 -47 -46 -22 -33 -23 -41 -23 -258 0 -180
3 -231 15 -257 41 -85 175 -92 225 -10 20 31 21 45 18 274 l-3 242 -37 34
c-31 28 -46 34 -80 34 -24 0 -54 -6 -68 -13z"/>
<path d="M3221 2803 c-62 -31 -71 -68 -71 -308 0 -229 6 -257 61 -298 33 -24
108 -25 144 -1 52 34 55 53 55 309 l0 235 -33 36 c-40 44 -102 55 -156 27z"/>
<path d="M3730 2482 c-50 -24 -60 -52 -60 -165 0 -138 23 -177 105 -177 27 0
44 8 66 29 29 29 29 31 29 146 0 64 -5 125 -11 137 -9 17 -64 48 -86 48 -4 0
-24 -8 -43 -18z m97 -26 c27 -23 28 -29 31 -121 5 -115 -7 -151 -54 -171 -39
-16 -74 -7 -98 28 -20 28 -23 224 -3 249 34 44 84 50 124 15z"/>
<path d="M1002 2274 c-24 -24 -58 -48 -75 -52 -22 -6 -33 -15 -35 -30 -4 -28
20 -29 73 -2 22 11 40 20 41 20 1 0 4 -53 7 -117 3 -91 10 -134 29 -188 100
-282 306 -488 600 -598 194 -73 429 -92 593 -48 43 12 83 25 87 29 14 14 -3
44 -21 37 -77 -30 -146 -40 -281 -40 -119 1 -161 5 -234 24 -352 92 -611 320
-704 621 -24 79 -37 186 -28 235 l7 36 30 -26 c17 -14 34 -25 39 -25 5 0 15
-3 24 -6 12 -5 16 0 16 17 0 17 -9 28 -28 37 -31 13 -52 49 -52 86 0 21 -19
38 -38 35 -4 -1 -27 -21 -50 -45z"/>
<path d="M3630 2211 c0 -40 56 -97 113 -115 22 -7 24 -56 2 -56 -8 0 -15 -4
-15 -10 0 -5 18 -10 40 -10 22 0 40 5 40 10 0 6 -7 10 -15 10 -9 0 -15 9 -15
23 0 17 11 27 48 44 45 21 92 78 92 112 0 23 -16 9 -32 -29 -45 -108 -187
-103 -234 8 -16 36 -24 41 -24 13z"/>
<path d="M2802 1704 c9 -3 19 -13 22 -22 3 -12 4 -12 3 3 -1 12 -10 21 -22 22
-15 1 -15 0 -3 -3z"/>
<path d="M2880 1702 c0 -4 9 -8 20 -8 11 0 20 4 20 8 0 4 -9 8 -20 8 -11 0
-20 -4 -20 -8z"/>
<path d="M2931 1693 c0 -11 3 -13 6 -5 3 7 25 12 58 12 33 0 55 -5 58 -12 3
-8 6 -6 6 5 1 14 -8 17 -64 17 -56 0 -65 -3 -64 -17z"/>
<path d="M2791 1674 c0 -11 3 -14 6 -6 3 7 2 16 -1 19 -3 4 -6 -2 -5 -13z"/>
<path d="M2871 1664 c0 -11 3 -14 6 -6 3 7 2 16 -1 19 -3 4 -6 -2 -5 -13z"/>
<path d="M2973 1600 c0 -47 2 -66 4 -42 2 23 2 61 0 85 -2 23 -4 4 -4 -43z"/>
<path d="M3003 1600 c0 -47 2 -66 4 -42 2 23 2 61 0 85 -2 23 -4 4 -4 -43z"/>
<path d="M2840 1605 c0 -5 5 -17 10 -25 5 -8 10 -10 10 -5 0 6 -5 17 -10 25
-5 8 -10 11 -10 5z"/>
<path d="M2867 1541 c-4 -17 -3 -21 5 -13 5 5 8 16 6 23 -3 8 -7 3 -11 -10z"/>
</g>
</svg>
