<?xml version="1.0" standalone="no"?>
<!DOCTYPE svg PUBLIC "-//W3C//DTD SVG 20010904//EN"
 "http://www.w3.org/TR/2001/REC-SVG-20010904/DTD/svg10.dtd">
<svg version="1.0" xmlns="http://www.w3.org/2000/svg"
 width="500.000000pt" height="500.000000pt" viewBox="0 0 500.000000 500.000000"
 preserveAspectRatio="xMidYMid meet">

<g transform="translate(0.000000,500.000000) scale(0.100000,-0.100000)"
fill="#000000" stroke="none">
<path d="M2765 3829 c-59 -12 -69 -20 -61 -47 6 -19 10 -19 39 -9 20 8 92 12
192 11 143 0 169 -3 246 -27 303 -93 519 -268 638 -518 56 -117 75 -195 75
-314 0 -55 -3 -109 -7 -119 -7 -19 -8 -18 -28 2 -24 27 -74 53 -83 45 -13 -14
-5 -43 17 -54 34 -18 46 -40 47 -81 0 -27 6 -40 20 -48 18 -9 28 -5 67 30 30
26 60 42 85 46 32 6 38 10 38 30 0 19 -5 24 -25 24 -15 0 -40 -7 -56 -16 -17
-8 -32 -14 -34 -12 -2 2 1 34 8 71 8 50 8 89 0 154 -49 385 -352 703 -778 815
-92 24 -317 34 -400 17z"/>
<path d="M2443 3510 c-78 -40 -73 26 -73 -1015 0 -1022 -4 -965 63 -1005 62
-38 146 -19 181 40 14 25 16 118 16 964 0 824 -1 940 -15 966 -33 63 -105 84
-172 50z"/>
<path d="M1367 3463 c67 -5 85 -29 58 -79 -14 -27 -15 -39 -6 -71 l10 -38 -5
36 c-2 21 1 49 8 64 l13 28 6 -24 c6 -21 7 -20 8 8 1 21 -7 42 -21 58 -18 21
-29 25 -72 23 l-51 -2 52 -3z"/>
<path d="M1460 3453 c0 -13 3 -14 8 -6 6 9 35 13 90 12 l82 -1 0 -49 c0 -63
15 -63 30 1 9 38 16 50 31 50 25 0 24 -1 -11 -94 -17 -43 -29 -81 -26 -83 2
-2 17 31 32 74 29 77 29 78 35 43 6 -32 6 -32 4 7 -1 24 1 40 6 37 5 -3 9 -1
9 5 0 5 26 12 58 14 31 2 15 3 -37 3 l-94 -1 -13 -35 -12 -35 -1 38 -1 37 -95
0 c-84 0 -95 -2 -95 -17z"/>
<path d="M1871 3443 c2 -24 2 -25 6 -5 4 19 11 22 47 22 23 0 47 -5 54 -12 16
-16 15 -49 -3 -74 -10 -16 -12 -30 -6 -52 5 -17 7 -33 3 -36 -3 -3 0 -6 7 -6
8 0 10 8 7 20 -3 11 -8 28 -11 38 -2 9 4 28 15 42 11 14 20 20 20 13 0 -6 7
-19 16 -27 14 -15 14 -16 -5 -16 -12 0 -21 -4 -21 -9 0 -5 8 -7 19 -4 10 3 22
0 25 -6 10 -16 36 -14 36 2 0 8 -11 19 -24 25 -35 16 -47 43 -33 73 21 41 107
36 107 -7 0 -17 -37 -19 -42 -2 -3 7 -11 9 -24 4 -17 -7 -16 -11 19 -39 42
-37 48 -68 15 -91 -12 -9 -17 -16 -11 -16 6 0 17 7 24 16 12 14 14 14 20 -3 4
-11 9 4 13 42 8 61 -4 112 -27 127 -27 17 -75 8 -96 -18 -12 -15 -21 -22 -21
-16 0 25 -33 42 -81 42 -47 0 -49 -1 -48 -27z m209 -33 c0 -5 -2 -10 -4 -10
-3 0 -8 5 -11 10 -3 6 -1 10 4 10 6 0 11 -4 11 -10z m60 -42 c-1 -30 -2 -31
-12 -13 -6 11 -19 25 -27 32 -14 11 -12 12 12 13 24 0 27 -4 27 -32z m-75 -28
c3 -5 1 -10 -4 -10 -6 0 -11 5 -11 10 0 6 2 10 4 10 3 0 8 -4 11 -10z"/>
<path d="M2151 3443 c2 -25 2 -26 6 -5 4 22 9 23 64 20 32 -1 59 0 59 5 0 4
-29 7 -65 7 -65 0 -65 0 -64 -27z"/>
<path d="M1313 3415 c0 -22 2 -30 4 -17 2 12 2 30 0 40 -3 9 -5 -1 -4 -23z"/>
<path d="M1570 3440 c0 -5 -16 -10 -35 -10 -28 0 -35 -4 -35 -20 0 -13 7 -20
20 -20 27 0 25 -28 -2 -32 -13 -2 -24 -11 -26 -20 -3 -14 4 -18 31 -18 20 0
38 -5 40 -10 3 -6 4 -5 3 2 -1 7 -17 14 -34 16 -37 4 -43 19 -9 24 30 4 38 48
8 48 -12 0 -21 5 -21 10 0 6 16 10 35 10 24 0 35 5 35 15 0 8 -2 15 -5 15 -3
0 -5 -4 -5 -10z"/>
<path d="M1593 3415 c0 -22 2 -30 4 -17 2 12 2 30 0 40 -3 9 -5 -1 -4 -23z"/>
<path d="M1850 3440 c0 -5 -16 -10 -35 -10 -28 0 -35 -4 -35 -20 0 -13 7 -20
20 -20 27 0 25 -28 -2 -32 -13 -2 -24 -11 -26 -20 -3 -14 4 -18 31 -18 25 0
37 -6 45 -22 10 -23 11 -23 11 5 1 15 -2 26 -6 26 -5 -1 -23 -1 -40 0 -37 1
-45 18 -10 23 30 4 38 48 8 48 -12 0 -21 5 -21 10 0 6 16 10 35 10 24 0 35 5
35 15 0 8 -2 15 -5 15 -3 0 -5 -4 -5 -10z"/>
<path d="M1361 3408 c1 -17 2 -19 6 -5 2 9 9 17 15 17 6 0 7 -8 3 -17 -5 -14
-3 -15 6 -6 13 13 4 33 -17 33 -8 0 -14 -9 -13 -22z"/>
<path d="M1917 3423 c-14 -13 -6 -33 13 -33 13 0 20 7 20 20 0 19 -20 27 -33
13z m23 -13 c0 -5 -4 -10 -10 -10 -5 0 -10 5 -10 10 0 6 5 10 10 10 6 0 10 -4
10 -10z"/>
<path d="M2197 3423 c-14 -13 -6 -33 13 -33 11 0 20 -7 20 -15 0 -8 -9 -15
-19 -15 -16 0 -31 -18 -31 -36 0 -2 16 -4 36 -4 31 0 36 -3 31 -20 -3 -11 -1
-20 4 -20 5 0 9 11 9 25 0 22 -4 25 -36 25 -21 0 -33 4 -29 10 3 6 15 10 26
10 14 0 19 7 19 25 0 18 -5 25 -20 25 -36 0 -21 19 18 23 l37 4 -36 1 c-20 1
-39 -1 -42 -5z"/>
<path d="M1863 3375 c0 -22 2 -30 4 -17 2 12 2 30 0 40 -3 9 -5 -1 -4 -23z"/>
<path d="M1303 3335 c0 -22 2 -30 4 -17 2 12 2 30 0 40 -3 9 -5 -1 -4 -23z"/>
<path d="M1603 3335 c0 -22 2 -30 4 -17 2 12 2 30 0 40 -3 9 -5 -1 -4 -23z"/>
<path d="M1350 3336 c0 -15 4 -25 10 -21 6 3 10 -3 10 -14 0 -12 4 -21 9 -21
6 0 6 13 -1 33 -15 45 -28 56 -28 23z"/>
<path d="M1905 3334 c-4 -16 -8 -35 -11 -41 -2 -7 1 -13 6 -13 6 0 10 12 11
28 0 24 1 25 9 7 l9 -20 0 20 c0 11 -3 27 -8 34 -8 12 -11 8 -16 -15z"/>
<path d="M1443 3315 c0 -22 2 -30 4 -17 2 12 2 30 0 40 -3 9 -5 -1 -4 -23z"/>
<path d="M1723 3315 c0 -22 2 -30 4 -17 2 12 2 30 0 40 -3 9 -5 -1 -4 -23z"/>
<path d="M2000 3311 c0 -10 29 -36 34 -30 1 2 -6 12 -16 22 -10 9 -18 13 -18
8z"/>
<path d="M2050 3182 c-72 -35 -70 -16 -70 -687 0 -577 1 -601 20 -632 27 -45
73 -66 129 -60 64 7 107 55 116 128 3 30 5 306 3 614 -3 623 0 592 -71 635
-40 25 -81 25 -127 2z"/>
<path d="M2830 3182 c-72 -35 -70 -16 -70 -687 0 -577 1 -601 20 -632 24 -40
67 -63 119 -63 52 0 106 45 121 101 7 25 10 239 8 622 -3 648 0 614 -71 657
-40 25 -81 25 -127 2z"/>
<path d="M1065 2839 c-72 -39 -99 -49 -137 -49 l-48 0 0 -95 0 -95 46 0 c35 0
65 -11 138 -50 51 -27 96 -50 99 -50 4 0 7 33 7 74 0 53 4 77 15 86 8 7 15 23
15 37 0 13 -7 26 -15 29 -12 5 -15 24 -15 85 0 43 -3 78 -7 78 -5 -1 -48 -23
-98 -50z m85 -148 l0 -168 -85 44 -85 44 0 82 0 82 78 42 c42 23 80 42 85 43
4 0 7 -76 7 -169z m-182 2 l-3 -78 -37 -3 -38 -3 0 80 0 81 40 0 41 0 -3 -77z
m215 14 c3 -8 1 -20 -4 -28 -6 -10 -9 -7 -9 14 0 29 5 35 13 14z"/>
<path d="M1280 2881 c0 -5 7 -14 16 -22 59 -49 78 -196 36 -274 -12 -22 -30
-51 -39 -64 -14 -19 -15 -23 -3 -19 8 2 29 26 45 53 40 65 48 176 16 245 -27
61 -71 111 -71 81z"/>
<path d="M1220 2818 c0 -4 9 -22 20 -40 13 -21 20 -51 20 -83 0 -32 -7 -62
-20 -83 -25 -41 -25 -50 0 -27 48 43 50 161 5 213 -14 15 -25 24 -25 20z"/>
<path d="M1632 2786 l-37 -34 -3 -238 c-3 -256 0 -280 47 -313 64 -46 153 -30
192 33 17 28 19 54 19 264 0 199 -2 238 -16 262 -24 39 -65 60 -118 60 -39 0
-52 -6 -84 -34z"/>
<path d="M3212 2800 c-56 -34 -62 -63 -62 -308 0 -211 1 -220 23 -253 74 -112
225 -73 242 62 12 94 1 420 -15 452 -31 63 -124 86 -188 47z"/>
<path d="M3734 2490 c-12 -4 -31 -21 -43 -37 -21 -26 -22 -36 -19 -146 3 -116
4 -119 31 -143 63 -54 157 -19 171 64 9 57 7 153 -5 195 -16 59 -78 90 -135
67z m99 -41 c14 -17 17 -41 17 -132 0 -100 -2 -113 -22 -134 -30 -32 -81 -31
-113 2 -23 23 -25 31 -25 130 0 105 0 107 30 137 26 25 36 29 63 24 18 -3 40
-16 50 -27z"/>
<path d="M998 2275 c-26 -25 -61 -48 -78 -51 -23 -5 -30 -12 -30 -30 0 -31 26
-32 82 -3 l41 21 -7 -49 c-21 -161 64 -392 209 -566 239 -288 727 -440 1058
-329 53 18 62 28 48 50 -6 11 -22 9 -82 -10 -62 -19 -96 -23 -209 -23 -157 0
-242 16 -395 76 -275 106 -493 340 -560 599 -8 32 -15 100 -15 151 l0 93 28
-26 c35 -33 72 -45 83 -27 14 23 10 39 -9 39 -26 0 -61 40 -68 80 -13 64 -33
64 -96 5z"/>
<path d="M3630 2211 c0 -38 49 -96 96 -113 25 -9 34 -18 34 -35 0 -14 -6 -23
-15 -23 -8 0 -15 -4 -15 -10 0 -5 20 -10 45 -10 46 0 61 14 25 23 -30 8 -26
43 7 52 57 14 113 78 113 129 0 28 -18 17 -25 -14 -15 -69 -102 -116 -165 -90
-36 15 -80 64 -80 90 0 10 -4 22 -10 25 -6 4 -10 -6 -10 -24z"/>
<path d="M2783 1696 c3 -8 11 -33 16 -55 6 -23 16 -59 22 -82 6 -23 12 -39 14
-37 3 2 -6 43 -19 91 -16 62 -19 87 -11 87 7 0 18 -27 25 -60 7 -33 16 -63 20
-65 4 -3 13 15 19 40 15 60 12 81 -3 25 l-13 -45 -12 45 c-18 69 -19 70 -42
70 -14 0 -19 -5 -16 -14z"/>
<path d="M2880 1700 c0 -5 7 -7 16 -3 17 6 16 4 -16 -115 -10 -35 -14 -60 -10
-55 7 7 50 160 50 177 0 3 -9 6 -20 6 -11 0 -20 -4 -20 -10z"/>
<path d="M2931 1693 c0 -11 3 -13 6 -5 3 7 25 12 58 12 33 0 55 -5 58 -12 3
-8 6 -6 6 5 1 14 -8 17 -64 17 -56 0 -65 -3 -64 -17z"/>
<path d="M2971 1603 c0 -46 2 -83 7 -83 4 0 6 26 4 57 -5 101 -9 111 -11 26z"/>
<path d="M3001 1598 c2 -86 6 -76 11 25 2 31 0 57 -4 57 -5 0 -7 -37 -7 -82z"/>
</g>
</svg>
